<svg width="16" height="16" viewBox="0 0 16 16" fill="none" xmlns="http://www.w3.org/2000/svg">
<path fill-rule="evenodd" clip-rule="evenodd" d="M5.26824 0.468629C5.5683 0.168571 5.97526 0 6.39961 0H9.59961C10.024 0 10.4309 0.168571 10.731 0.468629C11.031 0.768687 11.1996 1.17565 11.1996 1.6V3.2H13.5996C14.0414 3.2 14.3996 3.55817 14.3996 4C14.3996 4.44183 14.0414 4.8 13.5996 4.8V14.4C13.5996 14.8243 13.431 15.2313 13.131 15.5314C12.8309 15.8314 12.424 16 11.9996 16H3.99961C3.57526 16 3.1683 15.8314 2.86824 15.5314C2.56818 15.2313 2.39961 14.8243 2.39961 14.4V4.8C1.95778 4.8 1.59961 4.44183 1.59961 4C1.59961 3.55817 1.95778 3.2 2.39961 3.2H4.79961V1.6C4.79961 1.17565 4.96818 0.768687 5.26824 0.468629ZM6.39961 3.2H9.59961V1.6H6.39961V3.2ZM3.99961 4.8V14.4H11.9996V4.8H3.99961ZM6.39961 5.6C6.84144 5.6 7.19961 5.95817 7.19961 6.4V12.8C7.19961 13.2418 6.84144 13.6 6.39961 13.6C5.95778 13.6 5.59961 13.2418 5.59961 12.8V6.4C5.59961 5.95817 5.95778 5.6 6.39961 5.6ZM9.59961 5.6C10.0414 5.6 10.3996 5.95817 10.3996 6.4V12.8C10.3996 13.2418 10.0414 13.6 9.59961 13.6C9.15778 13.6 8.79961 13.2418 8.79961 12.8V6.4C8.79961 5.95817 9.15778 5.6 9.59961 5.6Z" fill="#0352FD"/>
</svg>
