<svg width="21" height="20" viewBox="0 0 21 20" fill="none" xmlns="http://www.w3.org/2000/svg">
<path d="M20 14.7767C20.0006 13.7258 19.8199 12.6827 19.4661 11.6933L18.2641 8.32583C18.0901 7.84055 17.7707 7.42079 17.3494 7.12386C16.9281 6.82692 16.4255 6.66726 15.9102 6.66667H9.92952C9.41419 6.66726 8.91159 6.82692 8.49031 7.12386C8.06903 7.42079 7.74959 7.84055 7.57558 8.32583L6.37362 11.6942C6.01969 12.6833 5.83906 13.7261 5.8397 14.7767V18.3333H7.50561V20H10.8375V18.3333H15.0022V20H18.3341V18.3333H20V14.7767ZM9.92952 8.33333H15.9102C16.082 8.33331 16.2497 8.38647 16.3902 8.48554C16.5307 8.5846 16.6371 8.72472 16.6948 8.88667L17.6877 11.6667H8.15199L9.14488 8.88667C9.20263 8.72472 9.30903 8.5846 9.44951 8.48554C9.58999 8.38647 9.75766 8.33331 9.92952 8.33333ZM18.3341 16.6667H7.50561V14.7767C7.50534 14.2922 7.5522 13.8088 7.64555 13.3333H9.17153V14.1667C9.17153 14.3877 9.25929 14.5996 9.4155 14.7559C9.57171 14.9122 9.78358 15 10.0045 15C10.2254 15 10.4373 14.9122 10.5935 14.7559C10.7497 14.5996 10.8375 14.3877 10.8375 14.1667V13.3333H15.0022V14.1667C15.0022 14.3877 15.09 14.5996 15.2462 14.7559C15.4024 14.9122 15.6143 15 15.8352 15C16.0561 15 16.268 14.9122 16.4242 14.7559C16.5804 14.5996 16.6682 14.3877 16.6682 14.1667V13.3333H18.1941C18.2875 13.8088 18.3344 14.2922 18.3341 14.7767V16.6667ZM3.34082 7.5V6.66667H1.81984C1.72525 7.142 1.67671 7.62535 1.6749 8.11V10H5.00674V13.3333H1.6749V11.6667H0.0089828C0.0589603 9.75 -0.215083 6.82417 0.54291 5.0275L1.74487 1.65917C1.9182 1.17361 2.23736 0.753543 2.65861 0.456518C3.07987 0.159494 3.58261 3.93606e-05 4.09798 0H10.0803C10.5957 3.93606e-05 11.0984 0.159494 11.5197 0.456518C11.9409 0.753543 12.2601 1.17361 12.4334 1.65917L13.6262 5H11.857L10.8641 2.22C10.8064 2.05818 10.7001 1.91817 10.5598 1.81911C10.4195 1.72006 10.252 1.66681 10.0803 1.66667H4.09881C3.92694 1.66664 3.75927 1.71981 3.6188 1.81887C3.47832 1.91794 3.37191 2.05805 3.31416 2.22L2.32128 5H9.92952C9.28376 5.00116 8.64707 5.1523 8.06962 5.44152C7.49217 5.73073 6.98973 6.15013 6.60185 6.66667H5.00674V7.5C5.00674 7.72101 4.91898 7.93297 4.76277 8.08926C4.60656 8.24554 4.39469 8.33333 4.17378 8.33333C3.95286 8.33333 3.741 8.24554 3.58479 8.08926C3.42858 7.93297 3.34082 7.72101 3.34082 7.5Z" fill="#286CFF"/>
</svg>
